<svg width="200" height="200" xmlns="http://www.w3.org/2000/svg">

 <g>
  <title>background</title>
  <rect fill="none" id="canvas_background" height="202" width="202" y="-1" x="-1"/>
 </g>
 <g>
  <title>Layer 1</title>
  <g stroke="null" id="svg_1">
   <path stroke="null" id="svg_2" d="m167.70598,17.9l-135.01196,0c-9.32326,0 -16.89402,7.17346 -16.89402,16.00745l0,83.15905c0,8.83399 7.57076,16.00745 16.89402,16.00745l19.27741,0c0.701,-7.17346 3.08439,-13.9484 6.79967,-19.85987c-13.87973,-1.79337 -22.71229,-6.50925 -22.71229,-8.90041c0,-2.72326 0,-0.53137 0,-4.38378c0,-9.56462 14.86113,-8.43546 23.62359,-14.47977l0,-3.85242c-3.01429,-2.92252 -5.74817,-6.90778 -6.37907,-11.29156c-2.73389,0 -4.27608,-1.19558 -5.25748,-6.57568c-0.8412,-4.64947 1.0515,-5.24726 3.22458,-5.31368c-2.59369,-14.41335 3.99568,-18.53145 13.03854,-18.53145c0,0 -0.2804,-2.72326 4.20598,-2.72326c9.04286,0 23.62359,6.11073 19.76811,21.32113c2.24319,0.06642 4.06578,0.66421 3.22458,5.31368c-0.9814,5.3801 -2.52359,6.57568 -5.25748,6.57568c-0.6309,4.38378 -3.29468,8.36904 -6.37907,11.29156l0,3.786c3.50498,2.45758 8.06146,3.71957 12.19734,4.98157c3.43488,-0.66421 7.00997,-1.06274 10.65515,-1.06274c26.56777,0 48.36877,19.19566 50.82226,43.705l14.16013,0c9.32326,0 16.89402,-7.17346 16.89402,-16.00745l0,-83.15905c0,-8.83399 -7.57076,-16.00745 -16.89402,-16.00745zm-3.36478,69.21065c0,0.66421 -0.5608,1.12916 -1.19169,1.12916l-44.86379,0c-0.701,0 -1.19169,-0.53137 -1.19169,-1.12916l0,-4.05168c0,-0.66421 0.5608,-1.12916 1.19169,-1.12916l44.79369,0c0.701,0 1.19169,0.53137 1.19169,1.12916l0,4.05168l0.0701,0zm0,-19.19566c0,0.66421 -0.5608,1.12916 -1.19169,1.12916l-44.86379,0c-0.701,0 -1.19169,-0.53137 -1.19169,-1.12916l0,-4.1181c0,-0.66421 0.5608,-1.12916 1.19169,-1.12916l44.79369,0c0.701,0 1.19169,0.53137 1.19169,1.12916l0,4.1181l0.0701,0zm0,-19.12924c0,0.66421 -0.5608,1.12916 -1.19169,1.12916l-44.86379,0c-0.701,0 -1.19169,-0.53137 -1.19169,-1.12916l0,-4.1181c0,-0.66421 0.5608,-1.12916 1.19169,-1.12916l44.79369,0c0.701,0 1.19169,0.53137 1.19169,1.12916l0,4.1181l0.0701,0z"/>
   <path stroke="null" id="svg_3" d="m102.72359,95.34685c-0.2804,0 -0.4907,0 -0.7711,0c-15.00133,0.26568 -28.18007,7.50557 -36.10133,18.46503c-4.06578,5.57936 -6.72957,12.15504 -7.57076,19.26208c-0.2103,1.52768 -0.2804,3.05536 -0.2804,4.64947c0,23.38018 20.04851,42.37658 44.72359,42.37658c24.67508,0 44.72359,-18.9964 44.72359,-42.37658c0,-1.5941 -0.0701,-3.12179 -0.2804,-4.64947c-2.45349,-21.18829 -21.3804,-37.72711 -44.44319,-37.72711zm0,78.11106c-20.8196,0 -37.71362,-16.00745 -37.71362,-35.73448c0,-1.5941 0.1402,-3.12179 0.3505,-4.64947c0.9814,-7.37273 4.41628,-14.08124 9.39336,-19.3285c6.93987,-7.23989 16.89402,-11.82293 27.96977,-11.82293c0.2804,0 0.5608,0 0.8412,0c18.78671,0.39853 34.20864,13.81556 36.59203,31.08501c0.2103,1.52768 0.3505,3.05536 0.3505,4.64947c0,19.72703 -16.96412,35.8009 -37.78372,35.8009z"/>
   <path stroke="null" id="svg_4" d="m119.96811,134.20311l-26.14718,0l0,-1.19558l0,-9.63104c0,-2.39115 0.9113,-4.38378 2.66379,-6.11073c1.75249,-1.66052 3.92558,-2.524 6.44917,-2.524c2.52359,0 4.62658,0.86347 6.44917,2.524c1.75249,1.66052 2.66379,3.71957 2.66379,6.11073c0,0.59779 0.2103,1.06274 0.701,1.52768c0.4206,0.39853 0.9814,0.66421 1.61229,0.66421l2.24319,0c0.6309,0 1.12159,-0.19926 1.61229,-0.66421c0.4206,-0.39853 0.701,-0.92989 0.701,-1.52768c0,-4.18452 -1.54219,-7.70483 -4.69668,-10.69378c-3.08439,-2.92252 -6.86977,-4.4502 -11.28605,-4.4502c-4.41628,0 -8.13156,1.46126 -11.28605,4.4502c-3.08439,2.92252 -4.69668,6.50925 -4.69668,10.69378l0,9.63104l0,1.19558l-1.12159,0c-0.9814,0 -1.75249,0.3321 -2.38339,0.92989c-0.6309,0.59779 -0.9814,1.39484 -0.9814,2.25831l0,19.39492c0,0.92989 0.3505,1.66052 0.9814,2.25831c0.6309,0.59779 1.47209,0.92989 2.38339,0.92989l34.13854,0c0.9814,0 1.75249,-0.3321 2.38339,-0.92989c0.6309,-0.59779 0.9814,-1.39484 0.9814,-2.25831l0,-19.39492c0,-0.92989 -0.3505,-1.66052 -0.9814,-2.25831c-0.6309,-0.59779 -1.40199,-0.92989 -2.38339,-0.92989z"/>
  </g>
 </g>
</svg>